<?xml version="1.0" encoding="UTF-8" standalone="no"?>
<!-- Created with Inkscape (http://www.inkscape.org/) -->

<svg
   width="65mm"
   height="45mm"
   viewBox="0 0 65 45"
   version="1.1"
   id="svg1"
   xml:space="preserve"
   sodipodi:docname="logo.svg"
   inkscape:version="1.3.2 (091e20e, 2023-11-25, custom)"
   xmlns:inkscape="http://www.inkscape.org/namespaces/inkscape"
   xmlns:sodipodi="http://sodipodi.sourceforge.net/DTD/sodipodi-0.dtd"
   xmlns="http://www.w3.org/2000/svg"
   xmlns:svg="http://www.w3.org/2000/svg"><sodipodi:namedview
     id="namedview1"
     pagecolor="#505050"
     bordercolor="#eeeeee"
     borderopacity="1"
     inkscape:showpageshadow="0"
     inkscape:pageopacity="0"
     inkscape:pagecheckerboard="0"
     inkscape:deskcolor="#505050"
     inkscape:document-units="mm"
     inkscape:zoom="1.0343421"
     inkscape:cx="287.62245"
     inkscape:cy="312.7592"
     inkscape:window-width="1920"
     inkscape:window-height="1017"
     inkscape:window-x="-8"
     inkscape:window-y="-8"
     inkscape:window-maximized="1"
     inkscape:current-layer="layer1" /><defs
     id="defs1" /><g
     inkscape:label="Capa 1"
     inkscape:groupmode="layer"
     id="layer1"><path
       style="fill:#ffffff;stroke-width:1.02436"
       d="M 4.991199,41.629859 C 2.90453,40.672106 1.77194,38.830554 1.77194,36.395441 c 0,-2.059584 0.403725,-2.843147 4.228168,-8.206173 8.253724,-11.574218 8.14857,-11.410362 8.670753,-13.511511 0.730981,-2.941321 1.957505,-5.0857935 4.251234,-7.4328905 3.38628,-3.46505 7.524629,-5.193423 12.434975,-5.193423 7.37422,0 13.94485,4.490866 16.19286,11.0674395 0.643,1.881087 1.55188,3.310846 6.96644,10.958901 3.42482,4.837578 6.41661,9.196336 6.64842,9.686142 0.23181,0.489817 0.49239,1.502482 0.57907,2.250383 0.21123,1.822426 -0.78861,3.988261 -2.35232,5.0956 -1.63131,1.15521 -3.7711,1.252898 -5.75192,0.26259 -1.57767,-0.788741 -1.68314,-0.914159 -6.43372,-7.650593 -1.15859,-1.642893 -2.14168,-2.875764 -2.18465,-2.739722 -0.043,0.136042 0.68427,2.651457 1.61608,5.589818 l 1.69422,5.34246 -8.26552,0.07238 c -4.54604,0.03987 -11.983233,0.03987 -16.527098,0 l -8.261568,-0.07238 1.413889,-5.068491 c 0.777646,-2.787676 1.381878,-5.181567 1.342743,-5.319763 -0.03912,-0.138206 -1.512223,1.767773 -3.273556,4.235504 -3.797269,5.320219 -4.68019,6.086054 -7.162573,6.212746 -1.101153,0.05623 -1.989252,-0.0612 -2.606668,-0.344599 z m 3.982122,-2.259236 c 0.606411,-0.33233 2.036595,-2.107796 4.463001,-5.540477 l 3.570626,-5.051427 -0.645333,-1.125253 c -0.798591,-1.392471 -1.6251,-3.807413 -1.866821,-5.454573 -0.100321,-0.683836 -0.278587,-1.24333 -0.396073,-1.24333 -0.22333,0 -7.945995,10.751151 -9.364728,13.037165 -1.308585,2.108531 -1.047068,4.173323 0.675542,5.3337 0.984214,0.662981 2.402572,0.680574 3.563786,0.04422 z m 21.486624,-1.550207 c 0,-1.796736 0.07083,-2.089986 0.595885,-2.465764 0.74215,-0.531184 0.8724,-0.530801 1.39581,0.0041 0.3074,0.314115 0.42132,0.980844 0.42132,2.465753 v 2.035229 h 6.16658 c 3.85012,0 6.16658,-0.100856 6.16658,-0.268605 0,-0.147733 -0.7198,-2.520634 -1.59954,-5.273114 l -1.59954,-5.004509 1.04563,-1.096757 c 3.48955,-3.660115 4.27092,-11.173401 1.67901,-16.144733 -0.39869,-0.764697 -1.51073,-2.2020865 -2.4712,-3.1941875 -5.84653,-6.039043 -16.029607,-6.066628 -21.802449,-0.05913 -2.871119,2.9878555 -3.994373,5.7618735 -3.988263,9.8495005 0.0061,4.149724 1.006467,7.211401 3.15304,9.65108 0.651799,0.740819 1.182139,1.513748 1.178511,1.717635 -0.0041,0.203888 -0.590836,2.431614 -1.304925,4.950498 -0.714089,2.518884 -1.233941,4.645598 -1.155235,4.726025 0.07874,0.08046 2.837639,0.146242 6.130945,0.146242 h 5.987841 z m 7.682755,0.716308 c -1.02108,-1.152942 -0.24004,-3.06062 1.25309,-3.06062 1.47511,0 2.25061,1.669878 1.37127,2.952743 -0.52617,0.767638 -1.98688,0.827686 -2.62436,0.107877 z M 27.376653,32.581338 c -2.94795,-0.593003 -4.155737,-1.143198 -4.155737,-1.893098 0,-0.928335 0.538802,-0.997536 2.588287,-0.332443 1.544448,0.501217 2.473394,0.596006 5.857247,0.597725 3.46337,0.0021 4.29683,-0.08626 6.00365,-0.634122 1.812,-0.581613 2.01854,-0.598802 2.40846,-0.200346 1.8625,1.903214 -6.96973,3.615351 -12.701907,2.462284 z m -1.212468,-5.299022 c -3.521753,-0.508724 -5.816841,-1.893357 -7.049961,-4.253273 -0.50453,-0.965561 -0.582588,-1.554152 -0.583834,-4.402249 -0.001,-3.141522 0.03648,-3.366844 0.852561,-5.068502 1.645863,-3.43208 4.348312,-5.7782655 7.939671,-6.8929465 1.550173,-0.481139 2.301786,-0.550019 4.703108,-0.430969 1.83927,0.09123 3.28815,0.31778 4.06457,0.635695 3.214,1.31598 5.94367,3.8928925 7.31601,6.9065745 0.77665,1.705561 0.83625,2.051248 0.83629,4.850148 5e-5,3.543188 -0.51445,4.990385 -2.34262,6.589436 -1.85099,1.619025 -3.83025,2.077974 -9.4292,2.186451 -2.654304,0.05146 -5.492277,-0.0031 -6.306595,-0.120365 z m 9.643545,-2.213374 c 3.04974,-0.358268 4.91632,-1.287535 5.69508,-2.835236 0.87533,-1.739618 0.82454,-5.524137 -0.10173,-7.579516 -1.03757,-2.302364 -2.62285,-3.940815 -4.95012,-5.1161545 -1.75627,-0.886978 -2.32119,-1.033654 -4.36565,-1.133537 -4.830207,-0.235978 -8.615985,1.8878265 -10.651982,5.9757225 -0.672197,1.349643 -0.750964,1.792676 -0.754987,4.246573 -0.0061,3.456953 0.399083,4.312027 2.566682,5.422452 2.310622,1.183686 7.548037,1.608795 12.562707,1.019696 z m -7.203094,-2.283218 c -0.485379,-0.495988 -0.34033,-0.685616 0.98394,-1.286375 1.155374,-0.524143 1.223784,-0.604755 0.737315,-0.868805 -0.89576,-0.486202 -1.218184,-1.058578 -0.91857,-1.630643 0.218019,-0.416287 0.584189,-0.510091 1.991019,-0.510091 1.45235,0 1.76929,0.08677 2.01229,0.550713 0.23857,0.455521 0.16697,0.665746 -0.41419,1.216117 l -0.70262,0.665404 1.0939,0.570274 c 1.96891,1.026416 1.10198,1.898711 -0.91179,0.917421 -0.91065,-0.443758 -1.00781,-0.439295 -2.266573,0.104139 -0.941786,0.406594 -1.397332,0.483769 -1.604721,0.271846 z m -6.128401,-3.900493 c -0.751218,-0.537677 -0.809981,-2.030321 -0.10557,-2.681735 1.675888,-1.549803 3.988435,0.819536 2.448477,2.508622 -0.642406,0.704618 -1.510674,0.768767 -2.342907,0.173113 z M 37.69898,18.763779 c -1.10045,-1.124498 -0.36064,-3.013702 1.18015,-3.013702 0.51361,0 1.06686,0.209147 1.32535,0.50103 0.97646,1.102546 0.14541,3.06062 -1.299,3.06062 -0.36865,0 -0.91158,-0.24658 -1.2065,-0.547948 z m 20.4039,20.471257 c 1.27851,-0.876612 1.80322,-2.571311 1.2454,-4.022391 -0.41792,-1.087178 -10.37263,-15.332104 -10.72373,-15.345379 -0.1106,-0.0041 -0.20109,0.342539 -0.20109,0.770496 0,1.222661 -0.97035,4.787657 -1.70805,6.275258 l -0.67069,1.352481 3.67663,5.174701 c 2.02215,2.846088 4.08334,5.45478 4.58042,5.797091 1.17462,0.808871 2.61936,0.808012 3.80111,-0.0021 z"
       id="path1"
       sodipodi:nodetypes="cssssssssssssssccccsssscsscssssssssssscssscsssscscssscsssssssscssscsccscssssscsssssscssssssssscssssssssssssscsssscsscc" /></g></svg>
